<svg width="119" height="15" viewBox="0 0 119 15" fill="none" xmlns="http://www.w3.org/2000/svg">
<path d="M0.42 14V0.659999H3.18L10.04 9.9L9.08 11.9V0.659999H12.06V14H9.62L2.64 4.88L3.4 3.42V14H0.42ZM18.6927 14.3C18.0793 14.3 17.4993 14.24 16.9527 14.12C16.4193 14.0133 15.946 13.8333 15.5327 13.58C15.1327 13.3133 14.8193 12.96 14.5927 12.52C14.366 12.0667 14.2527 11.5067 14.2527 10.84C14.2527 10.2133 14.3793 9.66667 14.6327 9.2C14.8993 8.73333 15.2993 8.37333 15.8327 8.12C16.366 7.86667 17.0393 7.74 17.8527 7.74C18.306 7.74 18.746 7.78667 19.1727 7.88C19.5993 7.97333 19.9793 8.1 20.3127 8.26C20.6593 8.42 20.9327 8.59333 21.1327 8.78L21.2527 10.22C20.986 10.06 20.666 9.93333 20.2927 9.84C19.9193 9.74667 19.5193 9.7 19.0927 9.7C18.4393 9.7 17.9593 9.8 17.6527 10C17.3593 10.1867 17.2127 10.4867 17.2127 10.9C17.2127 11.1533 17.286 11.38 17.4327 11.58C17.5793 11.78 17.7727 11.9333 18.0127 12.04C18.266 12.1467 18.526 12.2 18.7927 12.2C19.4727 12.2 19.946 12.1533 20.2127 12.06C20.4927 11.9667 20.6327 11.78 20.6327 11.5V7.78C20.6327 7.16667 20.4327 6.72667 20.0327 6.46C19.646 6.18 19.0927 6.04 18.3727 6.04C17.786 6.04 17.1927 6.14667 16.5927 6.36C16.006 6.56 15.526 6.80667 15.1527 7.1V4.46C15.4993 4.24667 16.0327 4.04667 16.7527 3.86C17.486 3.67333 18.306 3.58 19.2127 3.58C19.5327 3.58 19.886 3.60667 20.2727 3.66C20.6593 3.71333 21.046 3.81333 21.4327 3.96C21.8193 4.09333 22.1727 4.29333 22.4927 4.56C22.826 4.82667 23.0927 5.16667 23.2927 5.58C23.4927 5.99333 23.5927 6.50667 23.5927 7.12L23.5727 11.9C23.5727 12.4733 23.3793 12.94 22.9927 13.3C22.606 13.6467 22.046 13.9 21.3127 14.06C20.5927 14.22 19.7193 14.3 18.6927 14.3ZM30.378 14.4C29.2046 14.4 28.3313 14.1267 27.758 13.58C27.1846 13.02 26.898 12.2333 26.898 11.22V6.16H25.418V3.88H26.898V1.1H30.018V3.88H32.238V6.16H30.018V10.84C30.018 11.1867 30.0913 11.4467 30.238 11.62C30.3846 11.78 30.6313 11.86 30.978 11.86C31.178 11.86 31.398 11.82 31.638 11.74C31.878 11.66 32.078 11.56 32.238 11.44V14C31.958 14.1467 31.6513 14.2467 31.318 14.3C30.998 14.3667 30.6846 14.4 30.378 14.4ZM39.2597 14.3C38.3264 14.3 37.4997 14.1533 36.7797 13.86C36.0597 13.5667 35.4997 13.12 35.0997 12.52C34.6997 11.9067 34.4997 11.1133 34.4997 10.14V3.88H37.4797V9.9C37.4797 10.54 37.6197 11.02 37.8997 11.34C38.193 11.6467 38.653 11.8 39.2797 11.8C39.9197 11.8 40.3797 11.6467 40.6597 11.34C40.9397 11.02 41.0797 10.54 41.0797 9.9V3.88H43.8797V10.14C43.8797 11.58 43.4664 12.6333 42.6397 13.3C41.813 13.9667 40.6864 14.3 39.2597 14.3ZM46.5114 14V4.94C46.6981 4.78 47.0314 4.6 47.5114 4.4C47.9914 4.18667 48.5381 4 49.1514 3.84C49.7781 3.66667 50.4047 3.58 51.0314 3.58C51.6581 3.58 52.1514 3.62667 52.5114 3.72C52.8714 3.81333 53.1447 3.93333 53.3314 4.08V6.26C53.1047 6.20667 52.8181 6.16667 52.4714 6.14C52.1247 6.11333 51.7647 6.1 51.3914 6.1C51.0181 6.08667 50.6647 6.08667 50.3314 6.1C49.9981 6.11333 49.7181 6.14 49.4914 6.18V14H46.5114ZM59.2945 14.3C58.2812 14.3 57.3812 14.0933 56.5945 13.68C55.8212 13.2533 55.2145 12.6533 54.7745 11.88C54.3479 11.0933 54.1345 10.16 54.1345 9.08C54.1345 7.32 54.5679 5.96 55.4345 5C56.3145 4.02667 57.5679 3.54 59.1945 3.54C60.3145 3.54 61.2145 3.78 61.8945 4.26C62.5879 4.74 63.0945 5.44 63.4145 6.36C63.7345 7.28 63.8879 8.4 63.8745 9.72H56.1745L55.8545 7.82H61.4145L60.9745 8.76C60.9612 7.68 60.8079 6.92 60.5145 6.48C60.2212 6.04 59.7412 5.82 59.0745 5.82C58.7012 5.82 58.3612 5.91333 58.0545 6.1C57.7612 6.28667 57.5279 6.6 57.3545 7.04C57.1945 7.46667 57.1145 8.06 57.1145 8.82C57.1145 9.78 57.3412 10.52 57.7945 11.04C58.2612 11.56 59.0012 11.82 60.0145 11.82C60.3879 11.82 60.7545 11.78 61.1145 11.7C61.4879 11.6067 61.8345 11.5 62.1545 11.38C62.4745 11.26 62.7479 11.1533 62.9745 11.06V13.62C62.4945 13.82 61.9545 13.98 61.3545 14.1C60.7679 14.2333 60.0812 14.3 59.2945 14.3Z" fill="#30AF5B"/>
<path d="M66.045 14V0.659999H68.805L75.665 9.9L74.705 11.9V0.659999H77.685V14H75.245L68.265 4.88L69.025 3.42V14H66.045ZM84.9777 14.3C83.271 14.3 81.9843 13.8467 81.1177 12.94C80.2643 12.02 79.8377 10.6733 79.8377 8.9C79.8377 6.99333 80.271 5.62667 81.1377 4.8C82.0177 3.96 83.2977 3.54 84.9777 3.54C86.111 3.54 87.0577 3.73333 87.8177 4.12C88.591 4.49333 89.171 5.07333 89.5577 5.86C89.9577 6.64667 90.1577 7.66 90.1577 8.9C90.1577 10.6733 89.711 12.02 88.8177 12.94C87.9243 13.8467 86.6443 14.3 84.9777 14.3ZM84.9777 11.92C85.471 11.92 85.8777 11.8067 86.1977 11.58C86.531 11.34 86.7777 11 86.9377 10.56C87.111 10.1067 87.1977 9.55333 87.1977 8.9C87.1977 8.15333 87.111 7.56667 86.9377 7.14C86.7777 6.7 86.531 6.38667 86.1977 6.2C85.8643 6 85.4577 5.9 84.9777 5.9C84.471 5.9 84.0577 6 83.7377 6.2C83.4177 6.4 83.1777 6.72 83.0177 7.16C82.871 7.58667 82.7977 8.16667 82.7977 8.9C82.7977 9.91333 82.971 10.6733 83.3177 11.18C83.6777 11.6733 84.231 11.92 84.9777 11.92ZM96.7745 14.3C95.0679 14.3 93.7812 13.8467 92.9145 12.94C92.0612 12.02 91.6345 10.6733 91.6345 8.9C91.6345 6.99333 92.0679 5.62667 92.9345 4.8C93.8145 3.96 95.0945 3.54 96.7745 3.54C97.9079 3.54 98.8545 3.73333 99.6145 4.12C100.388 4.49333 100.968 5.07333 101.355 5.86C101.755 6.64667 101.955 7.66 101.955 8.9C101.955 10.6733 101.508 12.02 100.615 12.94C99.7212 13.8467 98.4412 14.3 96.7745 14.3ZM96.7745 11.92C97.2679 11.92 97.6745 11.8067 97.9945 11.58C98.3279 11.34 98.5745 11 98.7345 10.56C98.9079 10.1067 98.9945 9.55333 98.9945 8.9C98.9945 8.15333 98.9079 7.56667 98.7345 7.14C98.5745 6.7 98.3279 6.38667 97.9945 6.2C97.6612 6 97.2545 5.9 96.7745 5.9C96.2679 5.9 95.8545 6 95.5345 6.2C95.2145 6.4 94.9745 6.72 94.8145 7.16C94.6679 7.58667 94.5945 8.16667 94.5945 8.9C94.5945 9.91333 94.7679 10.6733 95.1145 11.18C95.4745 11.6733 96.0279 11.92 96.7745 11.92ZM106.331 8.42L110.051 3.88H113.671L108.051 9.82L106.331 8.42ZM106.971 14H104.011V0.0599995H107.011L106.971 14ZM108.591 7.12L113.931 14H110.151L106.471 9.14L108.591 7.12ZM115.629 14V11.18H118.529V14H115.629Z" fill="#292C27"/>
</svg>
